# xmcd CD database file
#
# Track frame offsets:
#	150
#	1633
#	17047
#	41137
#	61248
#	81267
#	101487
#	116968
#	118170
#	139110
#	158432
#	179740
#	198839
#	218371
#	232244
#	247584
#	251133
#	273823
#
# Disc length: 4160 seconds
#
# Revision: 1
# Processed by: cddbd v1.5.2PL0 Copyright (c) Steve Scherf et al.
# Submitted via: CDex 1.79
#
DISCID=ee103e12
DTITLE=Cody Canada and The Departed - This Is Indian Land
DYEAR=2011
DGENRE=Country
TTITLE0=Call From Crouch
TTITLE1=Face On Mars
TTITLE2=Ballad Of Rosalie
TTITLE3=True Love Never Dies
TTITLE4=Home Sweet Oklahoma
TTITLE5=Make Yourself Home
TTITLE6=Long Way To Nowhere
TTITLE7=Call From Coop
TTITLE8=Starin' Down The Sun
TTITLE9=Any Other Way
TTITLE10=Kickin' Back In Amsterdam
TTITLE11=Water Your Own Yard
TTITLE12=Years In The Making
TTITLE13=If You're Ever In Oklahoma
TTITLE14=A Little Rain Will Do
TTITLE15=Call From Skinner
TTITLE16=Skyline Radio
TTITLE17=Hold On Christian
EXTD=YEAR: 2011
EXTT0=
EXTT1=
EXTT2=
EXTT3=
EXTT4=
EXTT5=
EXTT6=
EXTT7=
EXTT8=
EXTT9=
EXTT10=
EXTT11=
EXTT12=
EXTT13=
EXTT14=
EXTT15=
EXTT16=
EXTT17=
PLAYORDER=
